<svg width="134" height="40" viewBox="0 0 134 40" fill="none" xmlns="http://www.w3.org/2000/svg">
<path d="M11.7394 39.1837C10.9139 24.1176 11.0632 15.5325 12.4731 0C14.0359 15.7696 14.2272 24.3602 13.2068 39.1837C13.2068 40.2721 11.7394 40.2721 11.7394 39.1837Z" fill="url(#paint0_linear)"/>
<path d="M14.4448 38.458C16.5085 15.6009 14.3073 15.2381 13.5736 2.53968C18.3427 11.9728 19.2734 31.6426 16.1416 38.458C15.8415 39.1111 14.4448 39.5465 14.4448 38.458Z" fill="url(#paint1_linear)"/>
<path d="M17.9759 37.0068C20.9107 24.3084 18.7096 17.0522 16.5085 7.61905C22.745 15.9637 22.3781 30.1134 19.7541 37.1933C19.5502 37.7436 17.9759 38.458 17.9759 37.0068Z" fill="url(#paint2_linear)"/>
<path d="M21.3991 35.0214C23.4787 30.1134 23.8456 22.4943 20.9107 14.8753C27.881 25.7596 24.2124 33.7415 22.4355 35.1377C22.1482 35.3634 21.3991 35.9267 21.3991 35.0214Z" fill="url(#paint3_linear)"/>
<path d="M10.5552 38.458C8.49153 15.6009 10.6927 15.2381 11.4264 2.53968C6.65726 11.9728 5.72665 31.6426 8.85839 38.458C9.15845 39.1111 10.5552 39.5465 10.5552 38.458Z" fill="url(#paint4_linear)"/>
<path d="M7.02411 37.0068C4.08927 24.3084 6.2904 17.0522 8.49153 7.61905C2.25499 15.9637 2.62185 30.1134 5.24586 37.1933C5.44981 37.7436 7.02411 38.458 7.02411 37.0068Z" fill="url(#paint5_linear)"/>
<path d="M3.6009 35.0214C1.52128 30.1134 1.15443 22.4943 4.08927 14.8753C-2.88098 25.7596 0.787575 33.7415 2.56453 35.1377C2.85178 35.3634 3.6009 35.9267 3.6009 35.0214Z" fill="url(#paint6_linear)"/>
<path d="M39.722 33L36.95 28.104H35.762V33H33.242V20.436H37.958C38.93 20.436 39.758 20.61 40.442 20.958C41.126 21.294 41.636 21.756 41.972 22.344C42.32 22.92 42.494 23.568 42.494 24.288C42.494 25.116 42.254 25.866 41.774 26.538C41.294 27.198 40.58 27.654 39.632 27.906L42.638 33H39.722ZM35.762 26.214H37.868C38.552 26.214 39.062 26.052 39.398 25.728C39.734 25.392 39.902 24.93 39.902 24.342C39.902 23.766 39.734 23.322 39.398 23.01C39.062 22.686 38.552 22.524 37.868 22.524H35.762V26.214ZM44.1252 27.978C44.1252 26.97 44.3232 26.076 44.7192 25.296C45.1273 24.516 45.6733 23.916 46.3573 23.496C47.0533 23.076 47.8273 22.866 48.6793 22.866C49.4233 22.866 50.0713 23.016 50.6233 23.316C51.1873 23.616 51.6373 23.994 51.9733 24.45V23.028H54.5113V33H51.9733V31.542C51.6493 32.01 51.1993 32.4 50.6233 32.712C50.0593 33.012 49.4053 33.162 48.6613 33.162C47.8213 33.162 47.0533 32.946 46.3573 32.514C45.6733 32.082 45.1273 31.476 44.7192 30.696C44.3232 29.904 44.1252 28.998 44.1252 27.978ZM51.9733 28.014C51.9733 27.402 51.8533 26.88 51.6133 26.448C51.3733 26.004 51.0493 25.668 50.6413 25.44C50.2333 25.2 49.7953 25.08 49.3273 25.08C48.8593 25.08 48.4273 25.194 48.0312 25.422C47.6353 25.65 47.3113 25.986 47.0593 26.43C46.8193 26.862 46.6993 27.378 46.6993 27.978C46.6993 28.578 46.8193 29.106 47.0593 29.562C47.3113 30.006 47.6353 30.348 48.0312 30.588C48.4393 30.828 48.8713 30.948 49.3273 30.948C49.7953 30.948 50.2333 30.834 50.6413 30.606C51.0493 30.366 51.3733 30.03 51.6133 29.598C51.8533 29.154 51.9733 28.626 51.9733 28.014ZM58.2505 21.84C57.8065 21.84 57.4345 21.702 57.1345 21.426C56.8465 21.138 56.7025 20.784 56.7025 20.364C56.7025 19.944 56.8465 19.596 57.1345 19.32C57.4345 19.032 57.8065 18.888 58.2505 18.888C58.6945 18.888 59.0605 19.032 59.3485 19.32C59.6485 19.596 59.7985 19.944 59.7985 20.364C59.7985 20.784 59.6485 21.138 59.3485 21.426C59.0605 21.702 58.6945 21.84 58.2505 21.84ZM59.4925 23.028V33H56.9725V23.028H59.4925ZM67.5082 22.884C68.6962 22.884 69.6562 23.262 70.3882 24.018C71.1202 24.762 71.4862 25.806 71.4862 27.15V33H68.9662V27.492C68.9662 26.7 68.7682 26.094 68.3722 25.674C67.9762 25.242 67.4362 25.026 66.7522 25.026C66.0562 25.026 65.5042 25.242 65.0962 25.674C64.7002 26.094 64.5022 26.7 64.5022 27.492V33H61.9822V23.028H64.5022V24.27C64.8382 23.838 65.2642 23.502 65.7802 23.262C66.3082 23.01 66.8842 22.884 67.5082 22.884ZM74.9986 33.126C74.5426 33.126 74.1646 32.988 73.8646 32.712C73.5766 32.424 73.4326 32.07 73.4326 31.65C73.4326 31.23 73.5766 30.882 73.8646 30.606C74.1646 30.318 74.5426 30.174 74.9986 30.174C75.4426 30.174 75.8086 30.318 76.0966 30.606C76.3846 30.882 76.5286 31.23 76.5286 31.65C76.5286 32.07 76.3846 32.424 76.0966 32.712C75.8086 32.988 75.4426 33.126 74.9986 33.126ZM77.9464 26.7C77.9464 25.464 78.2224 24.36 78.7744 23.388C79.3384 22.404 80.1004 21.642 81.0604 21.102C82.0324 20.55 83.1184 20.274 84.3184 20.274C85.7224 20.274 86.9524 20.634 88.0084 21.354C89.0644 22.074 89.8024 23.07 90.2224 24.342H87.3244C87.0364 23.742 86.6284 23.292 86.1004 22.992C85.5844 22.692 84.9844 22.542 84.3004 22.542C83.5684 22.542 82.9144 22.716 82.3384 23.064C81.7744 23.4 81.3304 23.88 81.0064 24.504C80.6944 25.128 80.5384 25.86 80.5384 26.7C80.5384 27.528 80.6944 28.26 81.0064 28.896C81.3304 29.52 81.7744 30.006 82.3384 30.354C82.9144 30.69 83.5684 30.858 84.3004 30.858C84.9844 30.858 85.5844 30.708 86.1004 30.408C86.6284 30.096 87.0364 29.64 87.3244 29.04H90.2224C89.8024 30.324 89.0644 31.326 88.0084 32.046C86.9644 32.754 85.7344 33.108 84.3184 33.108C83.1184 33.108 82.0324 32.838 81.0604 32.298C80.1004 31.746 79.3384 30.984 78.7744 30.012C78.2224 29.04 77.9464 27.936 77.9464 26.7ZM94.8948 24.576C95.2188 24.048 95.6388 23.634 96.1548 23.334C96.6828 23.034 97.2828 22.884 97.9548 22.884V25.53H97.2888C96.4968 25.53 95.8968 25.716 95.4888 26.088C95.0928 26.46 94.8948 27.108 94.8948 28.032V33H92.3748V23.028H94.8948V24.576ZM108.922 27.798C108.922 28.158 108.898 28.482 108.85 28.77H101.56C101.62 29.49 101.872 30.054 102.316 30.462C102.76 30.87 103.306 31.074 103.954 31.074C104.89 31.074 105.556 30.672 105.952 29.868H108.67C108.382 30.828 107.83 31.62 107.014 32.244C106.198 32.856 105.196 33.162 104.008 33.162C103.048 33.162 102.184 32.952 101.416 32.532C100.66 32.1 100.066 31.494 99.6342 30.714C99.2142 29.934 99.0042 29.034 99.0042 28.014C99.0042 26.982 99.2142 26.076 99.6342 25.296C100.054 24.516 100.642 23.916 101.398 23.496C102.154 23.076 103.024 22.866 104.008 22.866C104.956 22.866 105.802 23.07 106.546 23.478C107.302 23.886 107.884 24.468 108.292 25.224C108.712 25.968 108.922 26.826 108.922 27.798ZM106.312 27.078C106.3 26.43 106.066 25.914 105.61 25.53C105.154 25.134 104.596 24.936 103.936 24.936C103.312 24.936 102.784 25.128 102.352 25.512C101.932 25.884 101.674 26.406 101.578 27.078H106.312ZM110.114 27.978C110.114 26.97 110.312 26.076 110.708 25.296C111.116 24.516 111.668 23.916 112.364 23.496C113.06 23.076 113.834 22.866 114.686 22.866C115.334 22.866 115.952 23.01 116.54 23.298C117.128 23.574 117.596 23.946 117.944 24.414V19.68H120.5V33H117.944V31.524C117.632 32.016 117.194 32.412 116.63 32.712C116.066 33.012 115.412 33.162 114.668 33.162C113.828 33.162 113.06 32.946 112.364 32.514C111.668 32.082 111.116 31.476 110.708 30.696C110.312 29.904 110.114 28.998 110.114 27.978ZM117.962 28.014C117.962 27.402 117.842 26.88 117.602 26.448C117.362 26.004 117.038 25.668 116.63 25.44C116.222 25.2 115.784 25.08 115.316 25.08C114.848 25.08 114.416 25.194 114.02 25.422C113.624 25.65 113.3 25.986 113.048 26.43C112.808 26.862 112.688 27.378 112.688 27.978C112.688 28.578 112.808 29.106 113.048 29.562C113.3 30.006 113.624 30.348 114.02 30.588C114.428 30.828 114.86 30.948 115.316 30.948C115.784 30.948 116.222 30.834 116.63 30.606C117.038 30.366 117.362 30.03 117.602 29.598C117.842 29.154 117.962 28.626 117.962 28.014ZM124.239 21.84C123.795 21.84 123.423 21.702 123.123 21.426C122.835 21.138 122.691 20.784 122.691 20.364C122.691 19.944 122.835 19.596 123.123 19.32C123.423 19.032 123.795 18.888 124.239 18.888C124.683 18.888 125.049 19.032 125.337 19.32C125.637 19.596 125.787 19.944 125.787 20.364C125.787 20.784 125.637 21.138 125.337 21.426C125.049 21.702 124.683 21.84 124.239 21.84ZM125.481 23.028V33H122.961V23.028H125.481ZM130.905 25.098V29.922C130.905 30.258 130.983 30.504 131.139 30.66C131.307 30.804 131.583 30.876 131.967 30.876H133.137V33H131.553C129.429 33 128.367 31.968 128.367 29.904V25.098H127.179V23.028H128.367V20.562H130.905V23.028H133.137V25.098H130.905Z" fill="#244164"/>
<defs>
<linearGradient id="paint0_linear" x1="2.04464" y1="14.8753" x2="2.04464" y2="35.5188" gradientUnits="userSpaceOnUse">
<stop stop-color="#0972FC"/>
<stop offset="1" stop-color="#38DCFA"/>
</linearGradient>
<linearGradient id="paint1_linear" x1="2.04464" y1="14.8753" x2="2.04464" y2="35.5188" gradientUnits="userSpaceOnUse">
<stop stop-color="#0972FC"/>
<stop offset="1" stop-color="#38DCFA"/>
</linearGradient>
<linearGradient id="paint2_linear" x1="2.04464" y1="14.8753" x2="2.04464" y2="35.5188" gradientUnits="userSpaceOnUse">
<stop stop-color="#0972FC"/>
<stop offset="1" stop-color="#38DCFA"/>
</linearGradient>
<linearGradient id="paint3_linear" x1="2.04464" y1="14.8753" x2="2.04464" y2="35.5188" gradientUnits="userSpaceOnUse">
<stop stop-color="#0972FC"/>
<stop offset="1" stop-color="#38DCFA"/>
</linearGradient>
<linearGradient id="paint4_linear" x1="2.04464" y1="14.8753" x2="2.04464" y2="35.5188" gradientUnits="userSpaceOnUse">
<stop stop-color="#0972FC"/>
<stop offset="1" stop-color="#38DCFA"/>
</linearGradient>
<linearGradient id="paint5_linear" x1="2.04464" y1="14.8753" x2="2.04464" y2="35.5188" gradientUnits="userSpaceOnUse">
<stop stop-color="#0972FC"/>
<stop offset="1" stop-color="#38DCFA"/>
</linearGradient>
<linearGradient id="paint6_linear" x1="2.04464" y1="14.8753" x2="2.04464" y2="35.5188" gradientUnits="userSpaceOnUse">
<stop stop-color="#0972FC"/>
<stop offset="1" stop-color="#38DCFA"/>
</linearGradient>
</defs>
</svg>
